<svg xmlns="http://www.w3.org/2000/svg" width="640" height="480" viewBox="0 0 640 480">
  <defs>
    <clipPath id="t">
      <path d="M0 0h640v480H0z"/>
    </clipPath>
  </defs>
  <g clip-path="url(#t)">
    <path fill="#012169" d="M0 0h640v480H0z"/>
    <path fill="#FFF" d="M75 0l245 180L565 0h75v60L420 240l220 160v60h-75L320 300 75 480H0v-60l220-160L0 60V0h75z"/>
    <path fill="#C8102E" d="M424 282l216 158v40L369 282h55zm-264 18l-160 118H0l219-158-59 40zM640 0v3L391 180h-55L640 20V0h0zM0 0l249 180h-55L0 37V0z"/>
    <path fill="#FFF" d="M240 0h160v480H240zM0 160h640v160H0z"/>
    <path fill="#C8102E" d="M0 192h640v96H0zM272 0h96v480h-96z"/>
  </g>
</svg>

